<svg width="83" height="54" viewBox="0 0 83 54" fill="none" xmlns="http://www.w3.org/2000/svg">
<g clip-path="url(#clip0_3304_207)">
<path fill-rule="evenodd" clip-rule="evenodd" d="M36.8373 12.9187C35.1449 12.9187 33.7373 14.3242 33.7373 16.1025C33.7373 17.8808 35.1449 19.2863 36.8373 19.2863C38.5296 19.2863 39.9373 17.8808 39.9373 16.1025C39.9373 14.3242 38.5296 12.9187 36.8373 12.9187ZM31.6309 16.1025C31.6309 13.2007 33.9421 10.8123 36.8373 10.8123C39.7324 10.8123 42.0437 13.2007 42.0437 16.1025C42.0437 19.0043 39.7324 21.3927 36.8373 21.3927C33.9421 21.3927 31.6309 19.0043 31.6309 16.1025ZM36.8373 25.1213C34.085 25.1213 31.74 27.0046 31.0074 29.6065C30.9023 29.9798 30.545 30.2409 30.1623 30.1779L29.4695 30.064C29.0869 30.001 28.8248 29.6387 28.9195 29.2627C29.8211 25.6826 33.0113 23.0149 36.8373 23.0149C40.6632 23.0149 43.8535 25.6826 44.755 29.2627C44.8497 29.6387 44.5876 30.001 44.205 30.064L43.5122 30.1779C43.1296 30.2409 42.7722 29.9798 42.6671 29.6065C41.9346 27.0046 39.5896 25.1213 36.8373 25.1213Z" fill="white" fill-opacity="0.65"/>
<path fill-rule="evenodd" clip-rule="evenodd" d="M47.3692 26.285C46.8387 26.285 46.3299 26.3769 45.8559 26.5463C45.4907 26.6768 45.0654 26.5569 44.8801 26.2163L44.5444 25.5995C44.3591 25.2589 44.4839 24.8287 44.8421 24.6803C45.623 24.3569 46.4764 24.1786 47.3692 24.1786C50.4975 24.1786 53.0982 26.3504 53.8784 29.2649C53.9787 29.6395 53.7155 30.0019 53.3328 30.0642L52.6398 30.1771C52.257 30.2395 51.9012 29.9772 51.7852 29.6071C51.176 27.6632 49.4124 26.285 47.3692 26.285Z" fill="white" fill-opacity="0.65"/>
<path fill-rule="evenodd" clip-rule="evenodd" d="M47.3688 17.1311C46.3994 17.1311 45.6135 17.917 45.6135 18.8864C45.6135 19.8558 46.3994 20.6417 47.3688 20.6417C48.3383 20.6417 49.1242 19.8558 49.1242 18.8864C49.1242 17.917 48.3383 17.1311 47.3688 17.1311ZM43.5071 18.8864C43.5071 16.7536 45.236 15.0247 47.3688 15.0247C49.5016 15.0247 51.2306 16.7536 51.2306 18.8864C51.2306 21.0192 49.5016 22.7481 47.3688 22.7481C45.236 22.7481 43.5071 21.0192 43.5071 18.8864Z" fill="white" fill-opacity="0.65"/>
</g>
<path d="M25.4129 45V37.95H29.6129V38.89H26.0929L26.5329 38.38V45H25.4129ZM26.1429 41.83V40.89H29.1029V41.83H26.1429ZM30.3224 45V39.76H31.3124V40.62H31.3424C31.4358 40.32 31.6024 40.0833 31.8424 39.91C32.0824 39.73 32.3624 39.64 32.6824 39.64C32.7424 39.64 32.8024 39.6433 32.8624 39.65C32.9291 39.6567 32.9824 39.6667 33.0224 39.68V40.66C32.9624 40.6467 32.8991 40.6367 32.8324 40.63C32.7658 40.6233 32.6891 40.62 32.6024 40.62C32.3758 40.62 32.1691 40.6733 31.9824 40.78C31.8024 40.8867 31.6591 41.04 31.5524 41.24C31.4458 41.44 31.3924 41.6867 31.3924 41.98V45H30.3224ZM33.8869 45V39.76H34.9569V45H33.8869ZM34.4369 38.96C34.2502 38.96 34.0902 38.8967 33.9569 38.77C33.8302 38.6367 33.7669 38.4767 33.7669 38.29C33.7669 38.1033 33.8302 37.9467 33.9569 37.82C34.0902 37.6933 34.2502 37.63 34.4369 37.63C34.6235 37.63 34.7802 37.6933 34.9069 37.82C35.0335 37.9467 35.0969 38.1033 35.0969 38.29C35.0969 38.4767 35.0335 38.6367 34.9069 38.77C34.7802 38.8967 34.6235 38.96 34.4369 38.96ZM38.628 45.12C38.1014 45.12 37.6447 45.0067 37.258 44.78C36.878 44.5467 36.5847 44.22 36.378 43.8C36.178 43.38 36.078 42.8933 36.078 42.34C36.078 41.8067 36.1847 41.3367 36.398 40.93C36.618 40.5233 36.9147 40.2067 37.288 39.98C37.668 39.7533 38.098 39.64 38.578 39.64C39.058 39.64 39.4747 39.74 39.828 39.94C40.188 40.14 40.4647 40.4233 40.658 40.79C40.858 41.1567 40.958 41.5933 40.958 42.1C40.958 42.1933 40.9547 42.29 40.948 42.39C40.948 42.4833 40.9414 42.56 40.928 42.62H36.648V41.88H40.248L39.918 42.02C39.918 41.68 39.8647 41.3933 39.758 41.16C39.6514 40.92 39.4947 40.74 39.288 40.62C39.088 40.5 38.8447 40.44 38.558 40.44C38.2914 40.44 38.0514 40.5 37.838 40.62C37.6247 40.74 37.4547 40.9267 37.328 41.18C37.208 41.4267 37.148 41.75 37.148 42.15V42.47C37.148 43.0233 37.2747 43.46 37.528 43.78C37.788 44.1 38.1714 44.26 38.678 44.26C38.9847 44.26 39.248 44.1967 39.468 44.07C39.688 43.9433 39.868 43.7433 40.008 43.47L40.838 43.91C40.7114 44.17 40.5447 44.3933 40.338 44.58C40.1314 44.76 39.8847 44.8967 39.598 44.99C39.3114 45.0767 38.988 45.12 38.628 45.12ZM45.4212 45V41.76C45.4212 41.34 45.3212 41.0333 45.1212 40.84C44.9278 40.6467 44.6712 40.55 44.3512 40.55C43.9778 40.55 43.6778 40.67 43.4512 40.91C43.2245 41.15 43.1112 41.48 43.1112 41.9V45H42.0412V39.76H43.0312V40.59H43.0612C43.2012 40.29 43.4045 40.0567 43.6712 39.89C43.9445 39.7233 44.2745 39.64 44.6612 39.64C45.0345 39.64 45.3578 39.7133 45.6312 39.86C45.9045 40 46.1145 40.2167 46.2612 40.51C46.4145 40.8033 46.4912 41.1733 46.4912 41.62V45H45.4212ZM49.8324 45.12C49.3924 45.12 48.9991 45.01 48.6524 44.79C48.3124 44.57 48.0458 44.2533 47.8524 43.84C47.6591 43.4267 47.5624 42.94 47.5624 42.38C47.5624 41.8133 47.6591 41.3267 47.8524 40.92C48.0458 40.5067 48.3124 40.19 48.6524 39.97C48.9924 39.75 49.3858 39.64 49.8324 39.64C50.0724 39.64 50.2958 39.68 50.5024 39.76C50.7158 39.84 50.9058 39.9567 51.0724 40.11C51.2391 40.2567 51.3724 40.4333 51.4724 40.64H51.5024V37.78H52.5724V45H51.5624V44.11H51.5424C51.4491 44.3167 51.3124 44.4967 51.1324 44.65C50.9591 44.8033 50.7624 44.92 50.5424 45C50.3224 45.08 50.0858 45.12 49.8324 45.12ZM50.1024 44.24C50.3958 44.24 50.6524 44.1667 50.8724 44.02C51.0924 43.8733 51.2624 43.6633 51.3824 43.39C51.5024 43.11 51.5624 42.77 51.5624 42.37C51.5624 41.9833 51.4991 41.6533 51.3724 41.38C51.2458 41.1 51.0724 40.8867 50.8524 40.74C50.6391 40.5933 50.3891 40.52 50.1024 40.52C49.8224 40.52 49.5724 40.5933 49.3524 40.74C49.1324 40.88 48.9624 41.09 48.8424 41.37C48.7224 41.6433 48.6624 41.9767 48.6624 42.37C48.6624 42.77 48.7224 43.11 48.8424 43.39C48.9624 43.6633 49.1324 43.8733 49.3524 44.02C49.5724 44.1667 49.8224 44.24 50.1024 44.24ZM55.7852 45.12C55.2052 45.12 54.7252 45 54.3452 44.76C53.9719 44.5133 53.7219 44.1533 53.5952 43.68L54.5952 43.42C54.6886 43.74 54.8352 43.9733 55.0352 44.12C55.2419 44.26 55.5052 44.33 55.8252 44.33C56.1319 44.33 56.3686 44.2667 56.5352 44.14C56.7019 44.0133 56.7852 43.8267 56.7852 43.58C56.7852 43.38 56.7286 43.2233 56.6152 43.11C56.5019 42.99 56.3219 42.8967 56.0752 42.83L55.1152 42.57C54.7152 42.4633 54.4052 42.2933 54.1852 42.06C53.9719 41.8267 53.8652 41.53 53.8652 41.17C53.8652 40.8567 53.9486 40.5867 54.1152 40.36C54.2819 40.1333 54.5119 39.9567 54.8052 39.83C55.1052 39.7033 55.4519 39.64 55.8452 39.64C56.1852 39.64 56.4919 39.6867 56.7652 39.78C57.0386 39.8733 57.2686 40.01 57.4552 40.19C57.6419 40.3633 57.7719 40.5833 57.8452 40.85L56.8752 41.13C56.7819 40.89 56.6452 40.7133 56.4652 40.6C56.2919 40.4867 56.0752 40.43 55.8152 40.43C55.5286 40.43 55.3086 40.49 55.1552 40.61C55.0019 40.7233 54.9252 40.8833 54.9252 41.09C54.9252 41.25 54.9752 41.3867 55.0752 41.5C55.1819 41.6133 55.3552 41.7033 55.5952 41.77L56.5452 42.02C56.8119 42.0933 57.0419 42.1933 57.2352 42.32C57.4286 42.44 57.5786 42.5967 57.6852 42.79C57.7919 42.9833 57.8452 43.2233 57.8452 43.51C57.8452 43.8433 57.7586 44.13 57.5852 44.37C57.4186 44.61 57.1786 44.7967 56.8652 44.93C56.5586 45.0567 56.1986 45.12 55.7852 45.12Z" fill="white" fill-opacity="0.65"/>
<defs>
<clipPath id="clip0_3304_207">
<rect width="25" height="25" fill="white" transform="translate(28.9 8)"/>
</clipPath>
</defs>
</svg>
